<?xml version="1.0" standalone="no"?>
<!DOCTYPE svg PUBLIC "-//W3C//DTD SVG 20010904//EN"
 "http://www.w3.org/TR/2001/REC-SVG-20010904/DTD/svg10.dtd">
<svg version="1.0" xmlns="http://www.w3.org/2000/svg"
 width="237.000000pt" height="237.000000pt" viewBox="0 0 237.000000 237.000000"
 preserveAspectRatio="xMidYMid meet">
<metadata>
Created by potrace 1.14, written by Peter Selinger 2001-2017
</metadata>
<g transform="translate(0.000000,237.000000) scale(0.100000,-0.100000)"
fill="#000000" stroke="none">
<path d="M950 2341 c-301 -66 -558 -235 -733 -482 -65 -92 -141 -255 -174
-374 -25 -94 -27 -113 -27 -300 0 -187 2 -206 27 -300 93 -336 322 -612 632
-761 61 -29 155 -65 210 -81 94 -25 113 -27 300 -27 187 0 206 2 300 27 129
36 299 118 400 194 94 71 203 182 268 274 65 92 141 255 174 374 25 94 27 112
27 300 0 185 -2 207 -27 298 -114 422 -425 733 -844 844 -135 36 -403 43 -533
14z m441 -16 c478 -83 851 -457 934 -933 19 -109 19 -306 0 -415 -48 -274
-217 -548 -445 -720 -133 -100 -325 -184 -487 -212 -110 -19 -306 -19 -416 0
-330 57 -625 268 -801 570 -57 100 -111 248 -131 362 -19 110 -19 306 0 416
48 274 217 548 445 720 129 97 324 183 479 211 103 19 318 19 422 1z"/>
<path d="M1075 2259 c-163 -14 -354 -84 -497 -180 -87 -59 -218 -188 -278
-275 -258 -373 -258 -865 0 -1238 60 -87 191 -216 278 -275 369 -249 858 -245
1226 9 87 60 216 191 275 278 384 571 141 1367 -494 1613 -150 59 -336 83
-510 68z m-243 -719 c42 -184 78 -345 78 -357 0 -45 17 -21 33 50 10 39 54
201 99 360 l81 287 68 0 68 0 15 -52 c85 -297 132 -471 152 -563 12 -60 23
-108 24 -105 1 3 41 165 88 360 l87 355 58 3 c31 2 57 2 57 0 -1 -2 -54 -194
-118 -428 l-117 -425 -54 0 -55 0 -25 93 -26 92 -51 0 -52 0 -4 -342 c-5 -366
-8 -388 -58 -456 -78 -105 -274 -108 -376 -7 -24 25 -44 50 -44 57 0 7 17 24
37 37 l36 23 24 -31 c33 -42 73 -61 128 -61 61 0 98 21 121 67 17 34 19 71 22
376 l4 337 -51 0 -50 0 -11 -42 c-6 -24 -18 -67 -26 -95 l-15 -53 -54 0 c-30
0 -56 3 -58 8 -5 7 -227 839 -227 848 0 3 26 4 57 2 l57 -3 78 -335z"/>
<path d="M1131 1572 c-30 -109 -56 -209 -59 -224 l-4 -28 121 0 c66 0 121 3
121 8 0 12 -112 416 -119 429 -3 6 -30 -77 -60 -185z"/>
</g>
</svg>
