<svg xmlns="http://www.w3.org/2000/svg" xmlns:xlink="http://www.w3.org/1999/xlink" width="500" zoomAndPan="magnify" viewBox="0 0 375 374.999991" height="500" preserveAspectRatio="xMidYMid meet" version="1.0"><defs><clipPath id="id1"><path d="M 75.082031 75.082031 L 300.082031 75.082031 L 300.082031 300.082031 L 75.082031 300.082031 Z M 75.082031 75.082031 " clip-rule="nonzero"/></clipPath></defs><g clip-path="url(#id1)"><path fill="#f7b2ad" d="M 187.582031 300.082031 C 249.710938 300.082031 300.082031 249.710938 300.082031 187.582031 C 300.082031 125.449219 249.710938 75.082031 187.582031 75.082031 C 125.449219 75.082031 75.082031 125.449219 75.082031 187.582031 C 75.082031 249.710938 125.449219 300.082031 187.582031 300.082031 Z M 136.484375 139.71875 L 187.582031 180.59375 L 238.675781 139.71875 L 240.152344 138.488281 L 135.011719 138.488281 Z M 245.617188 148.132812 L 247.582031 146.5 L 247.582031 231.21875 C 247.582031 234.230469 245.136719 236.671875 242.125 236.671875 L 133.035156 236.671875 C 130.023438 236.671875 127.582031 234.230469 127.582031 231.21875 L 127.582031 146.5 L 129.542969 148.132812 L 129.628906 148.203125 L 184.171875 191.839844 C 186.164062 193.433594 188.996094 193.433594 190.988281 191.839844 L 245.535156 148.203125 Z M 245.617188 148.132812 " fill-opacity="1" fill-rule="evenodd"/></g></svg>