<?xml version="1.0" encoding="UTF-8"?><svg id="Layer_1" xmlns="http://www.w3.org/2000/svg" viewBox="0 0 811.44 103.21"><defs><style>.cls-1{letter-spacing:.05em;}.cls-2,.cls-3{fill:#7d5050;}.cls-3{font-family:AzoSans-Bold, 'Azo Sans';font-size:89px;}.cls-4{letter-spacing:-.08em;}.cls-5{letter-spacing:-.06em;}.cls-6{letter-spacing:.03em;}.cls-7{letter-spacing:.04em;}.cls-8{letter-spacing:.03em;}.cls-9{letter-spacing:-.01em;}.cls-10{fill:none;stroke:#7d5050;stroke-width:3px;}</style></defs><polyline class="cls-10" points="334.14 0 334.14 89.5 811.44 89.5"/><g><path class="cls-2" d="M90.27,30.76h-.18c-1.69,4.9-4,11.3-6.05,16.73l-2.58,6.85h17.36l-2.67-7.21c-1.87-5.07-4.18-11.48-5.87-16.38Z"/><path class="cls-2" d="M241.66,30.85c-4.54-3.2-10.68-3.92-17.89-3.92h-3.83v39.7h3.92c9.17,0,15.04-1.6,19.05-5.07,3.83-3.29,6.23-8.46,6.23-14.86,0-6.76-2.67-12.46-7.48-15.84Z"/><path class="cls-2" d="M0,0V91H332.64V0H0ZM48.08,57.82c0,8.28-1.6,12.99-4.27,16.29-3.56,4.36-9.35,5.88-15.13,5.88-3.92,0-7.3-.8-9.52-1.69v-12.73c2.76,1.07,6.05,1.69,8.19,1.69,5.34,0,6.59-2.4,6.59-9.17V14.56h14.15V57.82Zm60.16,21.18l-5.16-13.53h-25.99l-5.25,13.53h-14.51L83.5,14.56h13.71l26.17,64.44h-15.13Zm82.77,0h-13.35l-19.31-25.99c-4.18-5.61-8.1-11.04-12.1-16.64l-.18,.09c.09,6.14,.18,12.37,.18,18.6v23.94h-13.62V14.56h13.35l19.31,25.99c4.18,5.61,8.1,11.04,12.1,16.64l.18-.09c-.09-6.14-.18-12.37-.18-18.6V14.56h13.62V79Zm61.59-7.92c-6.59,5.34-15.84,7.92-29.37,7.92h-17.44V14.56h18.07c11.48,0,20.38,1.87,27.06,6.5,7.92,5.52,12.37,14.6,12.37,25.63,0,10.15-3.83,18.78-10.68,24.39Zm63.19,7.92h-40.76V14.56h39.79v12.37h-25.63v12.64h22.07v11.75h-22.07v15.31h26.61v12.37Z"/></g><text class="cls-3" transform="translate(322.29 79)"><tspan class="cls-6" x="0" y="0"> </tspan><tspan class="cls-8" x="24.12" y="0">R</tspan><tspan class="cls-9" x="85.35" y="0">O</tspan><tspan class="cls-4" x="157.44" y="0">Y</tspan><tspan class="cls-7" x="212.09" y="0">A</tspan><tspan class="cls-5" x="281.77" y="0">L</tspan><tspan class="cls-1" x="325.65" y="0">T</tspan><tspan x="388.57" y="0">Y</tspan></text></svg>