<svg xmlns="http://www.w3.org/2000/svg" xmlns:xlink="http://www.w3.org/1999/xlink" width="500" zoomAndPan="magnify" viewBox="0 0 375 374.999991" height="500" preserveAspectRatio="xMidYMid meet" version="1.0"><defs><clipPath id="id1"><path d="M 75.082031 75.082031 L 300.082031 75.082031 L 300.082031 300.082031 L 75.082031 300.082031 Z M 75.082031 75.082031 " clip-rule="nonzero"/></clipPath></defs><g clip-path="url(#id1)"><path fill="#f7b2ad" d="M 187.582031 75.082031 C 125.4375 75.082031 75.082031 125.4375 75.082031 187.582031 C 75.082031 249.722656 125.4375 300.082031 187.582031 300.082031 C 249.722656 300.082031 300.082031 249.722656 300.082031 187.582031 C 299.984375 125.4375 249.625 75.082031 187.582031 75.082031 Z M 154.5625 247.484375 L 128.164062 247.484375 L 128.164062 162.351562 L 154.5625 162.351562 Z M 141.410156 151.054688 C 132.9375 151.054688 126.023438 144.140625 126.023438 135.664062 C 126.023438 127.191406 132.9375 120.273438 141.410156 120.273438 C 149.886719 120.273438 156.800781 127.191406 156.800781 135.664062 C 156.800781 144.140625 149.886719 151.054688 141.410156 151.054688 Z M 253.71875 247.484375 L 227.320312 247.484375 L 227.320312 204.917969 C 227.320312 198.878906 227.320312 183.878906 213.878906 183.878906 C 198.585938 183.878906 197.613281 199.367188 197.613281 199.367188 L 197.613281 247.484375 L 171.3125 247.484375 L 171.3125 162.351562 L 197.710938 162.351562 L 197.710938 174.042969 C 203.945312 161.378906 216.800781 160.40625 225.179688 160.40625 C 234.722656 160.40625 243.292969 164.105469 248.164062 172.289062 C 252.351562 179.203125 253.71875 189.234375 253.71875 204.917969 Z M 253.71875 247.484375 " fill-opacity="1" fill-rule="nonzero"/></g></svg>