<svg xmlns="http://www.w3.org/2000/svg" xmlns:xlink="http://www.w3.org/1999/xlink" width="1920" zoomAndPan="magnify" viewBox="0 0 1440 809.999993" height="1080" preserveAspectRatio="xMidYMid meet" version="1.0"><defs><filter x="0%" y="0%" width="100%" height="100%" id="id1"><feColorMatrix values="0 0 0 0 1 0 0 0 0 1 0 0 0 0 1 0 0 0 1 0" color-interpolation-filters="sRGB"/></filter><mask id="id2"><g filter="url(#id1)"><rect x="-144" width="1728" fill="#000000" y="-80.999999" height="971.999992" fill-opacity="0.4"/></g></mask><clipPath id="id3"><path d="M 1.414062 0.367188 L 1374.660156 0.367188 L 1374.660156 681 L 1.414062 681 Z M 1.414062 0.367188 " clip-rule="nonzero"/></clipPath><clipPath id="id4"><rect x="0" width="1376" y="0" height="682"/></clipPath><clipPath id="id5"><path d="M 190.863281 174.578125 L 247.113281 174.578125 L 247.113281 254.828125 L 190.863281 254.828125 Z M 190.863281 174.578125 " clip-rule="nonzero"/></clipPath><clipPath id="id6"><path d="M 561.671875 342.523438 L 617.921875 342.523438 L 617.921875 422.773438 L 561.671875 422.773438 Z M 561.671875 342.523438 " clip-rule="nonzero"/></clipPath><clipPath id="id7"><path d="M 1172.003906 304.933594 L 1228.253906 304.933594 L 1228.253906 385.183594 L 1172.003906 385.183594 Z M 1172.003906 304.933594 " clip-rule="nonzero"/></clipPath><clipPath id="id8"><path d="M 678.628906 110.445312 L 734.878906 110.445312 L 734.878906 190.695312 L 678.628906 190.695312 Z M 678.628906 110.445312 " clip-rule="nonzero"/></clipPath><clipPath id="id9"><path d="M 589.714844 364.9375 L 645.964844 364.9375 L 645.964844 445.1875 L 589.714844 445.1875 Z M 589.714844 364.9375 " clip-rule="nonzero"/></clipPath></defs><g mask="url(#id2)"><g transform="matrix(1, 0, 0, 1, 32, 64)"><g clip-path="url(#id4)"><g clip-path="url(#id3)"><path fill="#cc8b86" d="M 472.738281 420.664062 C 462.65625 417.859375 462.09375 421.222656 460.972656 415.617188 C 459.851562 410.015625 453.128906 410.015625 446.960938 410.015625 C 440.800781 410.015625 438.554688 409.457031 433.507812 404.96875 C 428.464844 400.488281 417.816406 399.925781 414.457031 398.808594 C 411.09375 397.691406 412.777344 388.167969 406.050781 379.207031 C 399.328125 370.246094 385.316406 368.566406 376.351562 363.519531 C 367.386719 358.476562 370.1875 338.871094 357.292969 340.554688 C 344.40625 342.238281 343.285156 347.277344 331.519531 341.113281 C 319.75 334.953125 311.902344 331.03125 305.738281 335.515625 C 299.574219 339.992188 291.726562 348.394531 287.804688 350.636719 C 283.882812 352.878906 277.15625 348.957031 273.230469 349.519531 C 269.3125 350.074219 264.828125 345.589844 262.027344 341.671875 C 259.226562 337.75 267.070312 318.140625 259.785156 318.140625 C 252.5 318.140625 242.972656 314.78125 242.972656 311.980469 C 242.972656 309.179688 258.105469 292.371094 253.625 289.574219 C 249.136719 286.769531 240.167969 288.453125 232.324219 299.09375 C 224.476562 309.742188 217.191406 309.179688 213.269531 305.257812 C 209.347656 301.335938 200.378906 278.371094 207.664062 265.488281 C 214.949219 252.601562 226.71875 246.4375 235.683594 247 C 244.652344 247.5625 243.53125 244.761719 252.496094 244.203125 C 261.460938 243.644531 272.671875 246.441406 274.910156 249.804688 C 277.152344 253.160156 272.667969 258.765625 278.273438 265.488281 C 283.875 272.210938 287.242188 269.414062 287.800781 272.210938 C 288.363281 275.011719 283.316406 277.808594 281.078125 277.808594 C 278.835938 277.808594 260.339844 282.855469 267.625 286.210938 C 274.910156 289.574219 287.796875 286.769531 290.601562 291.257812 C 293.402344 295.742188 281.636719 305.261719 298.449219 305.820312 C 315.261719 306.378906 326.464844 308.625 336 309.183594 C 345.523438 309.742188 352.253906 310.304688 353.371094 312.542969 C 354.492188 314.785156 361.214844 304.140625 345.523438 304.140625 C 329.828125 304.140625 317.503906 295.179688 309.097656 293.5 C 300.691406 291.816406 295.085938 286.214844 294.523438 279.492188 C 293.964844 272.773438 295.085938 267.734375 291.722656 262.128906 C 288.359375 256.53125 279.953125 243.089844 287.796875 237.484375 C 295.640625 231.882812 311.335938 221.238281 315.257812 213.953125 C 319.175781 206.671875 319.175781 204.996094 328.144531 199.390625 C 337.113281 193.789062 347.761719 186.507812 352.804688 181.464844 C 357.855469 176.421875 366.257812 168.578125 367.941406 172.503906 C 369.625 176.425781 377.46875 177.550781 386.996094 174.183594 C 396.519531 170.828125 408.289062 162.421875 398.203125 162.421875 C 388.113281 162.421875 381.945312 159.621094 384.75 155.699219 C 387.550781 151.78125 378.027344 150.097656 375.21875 150.660156 C 372.417969 151.222656 372.417969 145.058594 381.945312 143.375 C 391.472656 141.691406 383.628906 150.097656 391.472656 149.539062 C 399.320312 148.980469 404.363281 142.816406 409.96875 141.691406 C 415.570312 140.574219 417.8125 145.617188 410.523438 150.660156 C 403.238281 155.699219 401 154.015625 410.523438 156.261719 C 420.054688 158.503906 422.855469 163.542969 428.457031 158.503906 C 434.0625 153.457031 427.335938 151.78125 426.777344 145.058594 C 426.214844 138.335938 427.898438 126.007812 421.730469 121.527344 C 415.566406 117.046875 415.566406 111.445312 415.566406 106.964844 C 415.566406 102.484375 416.6875 92.960938 410.523438 97.441406 C 404.359375 101.921875 399.316406 104.722656 397.070312 102.484375 C 394.828125 100.242188 398.195312 95.757812 393.148438 92.402344 C 388.105469 89.039062 387.546875 84 381.382812 84.558594 C 375.214844 85.121094 369.046875 80.078125 365.691406 87.359375 C 362.324219 94.640625 358.964844 100.804688 357.839844 103.046875 C 356.71875 105.289062 361.765625 113.128906 357.277344 117.046875 C 352.792969 120.96875 340.46875 126.574219 338.789062 130.492188 C 337.105469 134.410156 330.382812 144.496094 328.699219 137.773438 C 327.019531 131.054688 334.304688 120.96875 324.214844 118.167969 C 314.128906 115.367188 306.285156 117.613281 304.601562 111.449219 C 302.917969 105.289062 298.4375 99.683594 308.519531 94.640625 C 318.609375 89.597656 328.699219 80.640625 338.226562 79.519531 C 347.753906 78.402344 341.027344 86.242188 348.875 85.683594 C 356.71875 85.125 347.753906 81.199219 357.277344 79.519531 C 366.804688 77.839844 365.125 77.839844 362.324219 74.476562 C 359.523438 71.117188 361.203125 70.558594 368.488281 67.195312 C 375.769531 63.832031 370.171875 61.59375 377.457031 58.792969 C 384.742188 55.988281 386.417969 53.1875 390.347656 53.1875 C 394.269531 53.1875 393.710938 54.871094 391.46875 59.910156 C 389.222656 64.949219 387.546875 68.3125 394.269531 64.949219 C 400.996094 61.59375 404.359375 59.347656 399.316406 64.390625 C 394.269531 69.433594 390.910156 69.433594 383.621094 70.554688 C 376.339844 71.671875 378.574219 72.792969 381.941406 76.714844 C 385.300781 80.636719 393.710938 81.195312 396.511719 83.4375 C 399.316406 85.675781 402.675781 93.519531 409.40625 89.597656 C 416.128906 85.675781 411.085938 85.117188 420.050781 81.195312 C 429.015625 77.273438 441.90625 75.03125 440.785156 69.992188 C 439.664062 64.945312 430.695312 62.148438 429.574219 55.988281 C 428.457031 49.828125 441.90625 46.46875 424.535156 43.667969 C 407.160156 40.863281 417.25 38.625 408.839844 38.625 C 400.433594 38.625 384.742188 38.625 379.136719 41.425781 C 373.53125 44.226562 370.175781 39.746094 367.371094 44.226562 C 364.566406 48.703125 367.929688 54.871094 365.128906 54.871094 C 362.324219 54.871094 357.28125 59.351562 355.039062 54.871094 C 352.792969 50.390625 347.757812 45.910156 354.480469 44.226562 C 361.203125 42.542969 362.324219 43.667969 363.441406 38.621094 C 364.5625 33.582031 353.917969 34.140625 360.082031 33.023438 C 366.246094 31.902344 369.046875 33.582031 377.453125 33.582031 C 385.859375 33.582031 404.914062 36.9375 407.714844 31.902344 C 410.519531 26.855469 403.230469 26.855469 394.828125 26.300781 C 386.417969 25.742188 371.851562 22.9375 365.6875 25.742188 C 359.523438 28.539062 351.671875 33.023438 348.875 37.5 C 346.074219 41.980469 346.074219 36.378906 340.46875 37.5 C 334.867188 38.621094 325.339844 44.785156 330.382812 48.144531 C 335.429688 51.507812 335.429688 55.425781 329.820312 55.425781 C 324.21875 55.425781 322.539062 61.027344 318.613281 61.027344 C 314.691406 61.027344 304.046875 60.46875 309.085938 57.667969 C 314.132812 54.867188 319.734375 54.867188 319.171875 48.144531 C 318.613281 41.421875 324.777344 39.1875 324.777344 36.9375 C 324.777344 34.699219 311.328125 41.980469 300.679688 38.621094 C 290.027344 35.261719 285.546875 30.21875 274.894531 30.78125 C 264.246094 31.339844 250.238281 45.347656 256.964844 46.464844 C 263.691406 47.585938 268.734375 45.347656 269.859375 48.707031 C 270.976562 52.070312 268.734375 54.867188 272.660156 56.550781 C 276.585938 58.234375 283.871094 62.710938 274.339844 60.472656 C 264.8125 58.234375 269.296875 54.308594 254.730469 53.75 C 240.15625 53.191406 231.191406 48.707031 216.058594 52.632812 C 200.925781 56.550781 203.167969 59.914062 193.082031 56.550781 C 182.996094 53.191406 161.695312 45.351562 144.886719 48.707031 C 128.074219 52.070312 107.335938 57.671875 102.292969 61.03125 C 97.25 64.390625 107.339844 67.753906 98.371094 68.3125 C 89.40625 68.871094 68.109375 68.3125 72.59375 73.914062 C 77.074219 79.519531 82.679688 80.078125 75.949219 81.195312 C 69.226562 82.316406 60.257812 82.878906 56.902344 87.917969 C 53.53125 92.960938 41.203125 95.757812 49.050781 98.003906 C 56.902344 100.246094 69.785156 105.285156 64.183594 105.847656 C 58.578125 106.40625 29.996094 117.613281 17.664062 120.410156 C 5.335938 123.210938 -4.753906 136.65625 5.894531 132.734375 C 19.417969 127.757812 55.773438 116.488281 62.5 113.6875 C 69.222656 110.886719 72.023438 113.128906 71.464844 117.050781 C 70.90625 120.96875 79.3125 115.367188 86.035156 110.328125 C 92.753906 105.289062 92.753906 95.203125 98.363281 98.566406 C 103.96875 101.925781 107.332031 98.566406 111.816406 97.445312 C 116.300781 96.324219 120.78125 93.523438 124.707031 95.761719 C 128.628906 98.007812 138.71875 100.246094 141.515625 102.488281 C 144.320312 104.726562 145.441406 109.769531 142.640625 110.332031 C 139.839844 110.890625 139.28125 113.691406 139.839844 118.171875 C 140.402344 122.65625 142.640625 126.578125 137.039062 127.695312 C 131.433594 128.816406 132.550781 135.539062 135.914062 134.976562 C 139.277344 134.417969 141.515625 132.738281 142.078125 129.375 C 142.640625 126.015625 149.921875 119.855469 148.800781 124.332031 C 147.679688 128.8125 144.878906 133.296875 144.878906 136.65625 C 144.878906 140.015625 140.953125 139.457031 140.398438 142.820312 C 139.835938 146.179688 140.953125 146.179688 143.753906 148.980469 C 146.558594 151.785156 144.878906 153.460938 144.3125 159.625 C 143.753906 165.789062 126.949219 182.59375 124.703125 188.195312 C 122.457031 193.796875 123.585938 201.636719 123.585938 207.800781 C 123.585938 213.960938 121.339844 221.804688 127.507812 224.046875 C 133.671875 226.285156 134.230469 227.40625 134.230469 233.011719 C 134.230469 238.609375 134.230469 245.335938 137.59375 249.253906 C 140.957031 253.175781 139.277344 252.617188 139.277344 258.78125 C 139.277344 264.941406 143.195312 261.578125 143.757812 266.621094 C 144.320312 271.664062 140.957031 273.90625 146.5625 277.824219 C 152.164062 281.746094 158.332031 284.546875 155.53125 278.382812 C 152.726562 272.222656 151.042969 267.175781 148.242188 258.21875 C 145.441406 249.257812 143.757812 233.011719 147.121094 238.054688 C 150.484375 243.097656 154.96875 258.21875 160.011719 268.859375 C 165.054688 279.503906 171.21875 278.382812 171.21875 286.222656 C 171.21875 294.070312 165.054688 301.351562 177.382812 306.390625 C 189.714844 311.433594 198.675781 322.074219 205.960938 320.957031 C 213.246094 319.832031 217.734375 315.355469 220.53125 320.394531 C 223.335938 325.4375 229.496094 332.160156 236.226562 332.160156 C 242.949219 332.160156 245.191406 336.644531 246.3125 343.363281 C 247.4375 350.082031 251.914062 351.199219 258.644531 353.445312 C 265.367188 355.691406 267.050781 362.964844 272.097656 362.402344 C 277.140625 361.847656 283.863281 359.601562 283.863281 364.648438 C 283.863281 369.699219 286.105469 382.015625 277.703125 389.859375 C 269.292969 397.699219 265.375 403.308594 269.855469 408.34375 C 274.335938 413.386719 270.414062 418.421875 268.171875 422.351562 C 265.929688 426.277344 269.855469 429.632812 274.335938 435.796875 C 278.820312 441.957031 284.984375 449.242188 288.90625 461.566406 C 292.832031 473.890625 298.433594 478.375 307.960938 482.289062 C 317.488281 486.214844 324.773438 492.9375 324.773438 502.453125 C 324.773438 511.984375 324.210938 544.460938 324.210938 553.988281 C 324.210938 563.507812 329.257812 573.03125 327.574219 580.324219 C 325.890625 587.597656 327.574219 593.761719 329.816406 596.5625 C 332.0625 599.371094 331.496094 605.527344 332.0625 611.691406 C 332.625 617.855469 339.347656 613.371094 339.347656 618.972656 C 339.347656 624.574219 336.542969 632.976562 339.90625 635.773438 C 343.265625 638.582031 335.984375 648.65625 351.113281 658.1875 C 366.246094 667.707031 367.371094 668.265625 368.484375 669.953125 C 369.605469 671.632812 374.644531 666.589844 374.644531 669.382812 C 374.644531 672.191406 366.242188 680.589844 381.933594 680.589844 C 397.625 680.589844 407.152344 682.839844 397.625 675.546875 C 388.101562 668.265625 382.496094 671.625 380.816406 664.347656 C 379.136719 657.070312 376.894531 658.1875 375.765625 653.140625 C 374.644531 648.09375 379.695312 645.859375 378.011719 640.816406 C 376.328125 635.773438 369.609375 635.773438 370.167969 630.738281 C 370.730469 625.695312 374.648438 620.652344 375.769531 618.414062 C 376.898438 616.164062 376.898438 613.929688 374.089844 611.691406 C 371.289062 609.445312 371.851562 608.886719 375.769531 607.765625 C 379.699219 606.648438 380.257812 608.328125 381.9375 602.71875 C 383.617188 597.125 388.660156 597.683594 390.902344 596 C 393.144531 594.324219 400.988281 592.082031 398.183594 584.800781 C 395.382812 577.519531 389.78125 574.15625 395.941406 574.15625 C 402.109375 574.15625 408.273438 573.597656 412.195312 565.757812 C 416.121094 557.914062 414.441406 556.230469 418.921875 550.070312 C 423.402344 543.910156 423.96875 538.867188 423.96875 534.386719 C 423.96875 529.898438 421.722656 525.425781 427.890625 522.617188 C 434.054688 519.816406 454.234375 516.457031 457.035156 508.050781 C 459.835938 499.648438 462.636719 490.6875 461.515625 481.722656 C 460.398438 472.757812 459.835938 467.160156 466 459.871094 C 472.160156 452.59375 480.011719 446.429688 480.011719 439.710938 C 480.015625 432.996094 482.828125 423.460938 472.738281 420.664062 Z M 576.417969 52.625 C 582.582031 45.90625 580.90625 42.539062 589.3125 39.183594 C 597.714844 35.820312 595.476562 31.339844 594.355469 24.617188 C 593.234375 17.894531 594.355469 20.695312 597.71875 18.453125 C 601.085938 16.210938 606.128906 14.53125 613.972656 13.972656 C 621.816406 13.414062 614.535156 10.613281 614.535156 7.253906 C 614.535156 3.890625 608.933594 4.453125 601.082031 5.570312 C 593.234375 6.695312 594.359375 5.570312 588.753906 3.328125 C 583.152344 1.089844 550.085938 1.089844 541.679688 1.089844 C 533.273438 1.089844 518.144531 2.765625 510.292969 3.328125 C 502.449219 3.890625 503.011719 3.328125 487.878906 1.648438 C 472.75 -0.0273438 432.960938 1.089844 418.390625 2.765625 C 403.816406 4.449219 393.171875 6.128906 383.636719 12.292969 C 374.117188 18.453125 367.949219 16.210938 357.300781 17.328125 C 346.652344 18.453125 345.535156 18.453125 340.488281 18.453125 C 335.445312 18.453125 336.003906 15.652344 327.039062 19.011719 C 318.074219 22.371094 320.875 24.613281 317.507812 20.132812 C 314.148438 15.652344 309.664062 20.132812 293.972656 24.050781 C 278.28125 27.972656 299.574219 32.453125 304.621094 34.136719 C 304.621094 34.136719 315.265625 33.578125 321.429688 31.894531 C 327.59375 30.214844 330.398438 34.136719 334.320312 33.015625 C 338.242188 31.894531 339.367188 27.972656 361.777344 22.929688 C 384.195312 17.886719 399.886719 21.8125 408.855469 25.734375 C 417.820312 29.652344 417.820312 27.414062 425.667969 22.371094 C 433.511719 17.324219 446.960938 13.410156 460.972656 11.167969 C 474.984375 8.925781 466.015625 13.972656 457.050781 17.328125 C 448.085938 20.691406 440.238281 19.574219 441.917969 25.171875 C 443.601562 30.777344 460.972656 29.09375 466.015625 29.09375 C 471.0625 29.09375 471.617188 36.9375 472.179688 41.417969 C 472.738281 45.902344 471.617188 48.140625 472.738281 52.621094 C 473.859375 57.101562 476.664062 56.542969 471.617188 61.023438 C 466.574219 65.507812 463.773438 64.941406 463.773438 72.789062 C 463.773438 80.628906 467.132812 89.03125 474.984375 94.632812 C 482.828125 100.238281 487.3125 100.796875 491.796875 91.835938 C 496.28125 82.875 506.921875 77.269531 512.53125 74.46875 C 518.132812 71.667969 525.976562 74.46875 533.261719 67.746094 C 540.542969 61.027344 550.070312 63.828125 560.71875 60.464844 C 571.375 57.105469 570.253906 59.347656 576.417969 52.625 Z M 587.625 65.511719 C 570.816406 67.75 555.121094 62.148438 557.925781 71.113281 C 560.730469 80.074219 561.289062 93.519531 570.253906 90.71875 C 585.65625 85.90625 602.761719 83.4375 598.835938 76.152344 C 594.914062 68.867188 604.4375 63.269531 587.625 65.511719 Z M 694.632812 27.554688 C 695.238281 27.71875 695.832031 27.777344 696.347656 27.980469 C 701.949219 30.21875 705.875 26.859375 706.4375 22.375 C 712.597656 13.414062 710.355469 29.660156 717.085938 26.859375 C 723.804688 24.058594 733.339844 17.335938 741.183594 13.414062 C 749.027344 9.492188 731.65625 11.171875 717.644531 8.933594 C 703.632812 6.695312 684.023438 10.617188 678.417969 14.53125 C 673.191406 18.1875 686.453125 25.238281 694.632812 27.554688 Z M 785.457031 15.65625 C 785.457031 15.65625 782.652344 19.578125 789.382812 19.578125 C 796.105469 19.578125 810.117188 15.089844 821.324219 15.089844 C 832.535156 15.089844 829.164062 11.171875 826.925781 11.171875 C 824.6875 11.171875 818.527344 5.015625 809.558594 5.570312 C 800.59375 6.132812 801.152344 10.050781 795.550781 10.050781 C 789.945312 10.050781 791.0625 8.371094 779.296875 8.933594 C 767.523438 9.488281 779.292969 14.53125 785.457031 15.65625 Z M 1172.710938 449.785156 C 1181.667969 450.90625 1188.398438 449.785156 1194.566406 446.425781 C 1200.726562 443.0625 1197.929688 439.144531 1197.367188 437.464844 C 1196.808594 435.785156 1192.316406 439.144531 1186.160156 440.265625 C 1179.992188 441.390625 1178.3125 441.390625 1170.460938 441.949219 C 1162.621094 442.507812 1167.660156 439.144531 1159.253906 438.585938 C 1150.855469 438.019531 1142.445312 436.347656 1132.917969 432.984375 C 1123.386719 429.625 1118.34375 426.824219 1111.621094 424.582031 C 1104.894531 422.339844 1111.058594 418.421875 1110.496094 408.902344 C 1109.9375 399.375 1103.769531 403.296875 1098.730469 399.9375 C 1093.679688 396.574219 1095.367188 389.292969 1097.609375 391.535156 C 1099.847656 393.777344 1100.410156 396.582031 1100.410156 384.8125 C 1100.410156 373.050781 1089.761719 365.210938 1083.039062 355.128906 C 1076.316406 345.042969 1077.4375 339.441406 1077.988281 334.402344 C 1078.550781 329.359375 1090.320312 338.882812 1096.488281 346.160156 C 1102.648438 353.449219 1102.648438 353.449219 1106.011719 351.761719 C 1109.375 350.082031 1119.464844 344.480469 1121.703125 335.523438 C 1123.945312 326.554688 1103.769531 308.636719 1100.972656 300.226562 C 1098.167969 291.824219 1104.890625 296.871094 1108.257812 291.269531 C 1111.613281 285.664062 1115.535156 293.507812 1113.300781 297.429688 C 1111.054688 301.351562 1113.859375 303.59375 1116.105469 307.511719 C 1118.347656 311.433594 1118.347656 307.511719 1120.589844 302.472656 C 1122.832031 297.429688 1121.148438 295.753906 1125.070312 292.386719 C 1129 289.023438 1144.125 284.542969 1148.046875 280.621094 C 1151.976562 276.703125 1154.773438 272.21875 1159.820312 258.214844 C 1164.867188 244.210938 1159.257812 244.773438 1157.019531 239.730469 C 1154.777344 234.683594 1148.050781 226.285156 1144.128906 221.242188 C 1140.203125 216.203125 1143.566406 217.328125 1146.367188 215.640625 C 1149.171875 213.960938 1146.929688 210.042969 1140.210938 207.796875 C 1133.484375 205.558594 1134.605469 210.039062 1128.441406 208.917969 C 1122.273438 207.796875 1125.632812 203.316406 1132.363281 195.46875 C 1139.089844 187.628906 1135.722656 197.15625 1140.210938 200.511719 C 1144.691406 203.878906 1145.8125 197.714844 1149.171875 199.394531 C 1152.539062 201.074219 1159.257812 204.441406 1164.308594 211.160156 C 1169.351562 217.882812 1169.351562 225.722656 1174.394531 225.164062 C 1179.4375 224.605469 1179.4375 222.363281 1181.675781 217.320312 C 1183.921875 212.277344 1175.515625 207.796875 1171.59375 203.875 C 1167.664062 199.953125 1163.75 199.953125 1167.101562 196.589844 C 1170.464844 193.230469 1167.664062 188.191406 1169.347656 184.269531 C 1171.03125 180.34375 1177.195312 182.585938 1183.359375 179.785156 C 1189.523438 176.984375 1190.082031 167.460938 1190.082031 157.375 C 1190.082031 147.292969 1185.039062 142.8125 1182.234375 139.453125 C 1179.433594 136.085938 1185.601562 137.769531 1190.640625 141.691406 C 1195.691406 145.613281 1203.53125 166.898438 1205.21875 175.300781 C 1206.898438 183.707031 1205.777344 183.707031 1212.5 190.988281 C 1219.222656 198.269531 1216.988281 197.152344 1214.742188 205.550781 C 1212.5 213.953125 1206.898438 216.195312 1198.488281 218.4375 C 1190.085938 220.675781 1192.886719 222.355469 1187.84375 230.761719 C 1182.796875 239.160156 1190.644531 239.71875 1195.128906 241.960938 C 1199.609375 244.203125 1201.847656 235.796875 1207.457031 231.878906 C 1213.058594 227.957031 1219.226562 225.15625 1228.753906 225.15625 C 1238.277344 225.15625 1225.945312 212.269531 1225.386719 205.550781 C 1224.824219 198.828125 1224.265625 194.34375 1222.023438 189.304688 C 1219.78125 184.265625 1224.269531 184.265625 1230.992188 180.898438 C 1237.710938 177.542969 1237.152344 170.820312 1233.238281 170.820312 C 1229.3125 170.820312 1225.945312 173.617188 1216.984375 173.058594 C 1208.019531 172.5 1210.261719 165.214844 1208.019531 162.417969 C 1205.777344 159.617188 1202.96875 153.453125 1202.414062 148.410156 C 1201.855469 143.367188 1194.011719 136.652344 1188.40625 131.609375 C 1182.804688 126.566406 1179.441406 123.207031 1179.441406 125.449219 C 1179.441406 127.6875 1176.078125 124.890625 1168.230469 124.324219 C 1160.382812 123.769531 1158.703125 125.449219 1151.980469 124.886719 C 1145.253906 124.324219 1152.539062 113.121094 1155.339844 105.28125 C 1158.140625 97.433594 1165.988281 101.914062 1172.148438 101.914062 C 1178.3125 101.914062 1181.113281 102.476562 1190.082031 104.714844 C 1199.046875 106.957031 1195.132812 99.113281 1196.808594 92.953125 C 1198.488281 86.792969 1202.410156 90.152344 1207.457031 92.394531 C 1212.5 94.636719 1214.175781 95.195312 1214.175781 90.15625 C 1214.175781 85.113281 1218.664062 83.992188 1222.582031 88.472656 C 1226.5 92.960938 1215.855469 102.476562 1215.855469 102.476562 C 1215.855469 102.476562 1212.496094 112.5625 1218.664062 115.917969 C 1224.820312 119.28125 1237.152344 133.847656 1244.441406 138.886719 C 1251.726562 143.929688 1246.683594 130.484375 1246.683594 120.957031 C 1246.683594 111.4375 1239.960938 112.558594 1234.914062 103.59375 C 1229.875 94.632812 1233.238281 98.554688 1242.761719 98.554688 C 1252.285156 98.554688 1252.851562 95.191406 1255.089844 92.390625 C 1257.335938 89.585938 1259.015625 89.027344 1267.421875 89.027344 C 1275.824219 89.027344 1270.78125 85.667969 1266.863281 81.1875 C 1262.941406 76.707031 1255.089844 77.832031 1257.894531 75.023438 C 1260.699219 72.226562 1275.828125 76.707031 1283.121094 79.507812 C 1290.398438 82.304688 1288.722656 80.066406 1287.601562 73.347656 C 1286.480469 66.625 1280.316406 71.664062 1262.382812 64.941406 C 1244.449219 58.222656 1224.828125 54.296875 1218.671875 54.296875 C 1212.503906 54.296875 1216.988281 50.378906 1221.472656 50.378906 C 1225.957031 50.378906 1224.835938 46.457031 1220.355469 44.214844 C 1215.863281 41.972656 1211.949219 43.65625 1210.269531 48.695312 C 1208.582031 53.738281 1215.308594 54.296875 1202.417969 54.296875 C 1189.53125 54.296875 1180 54.296875 1164.871094 51.5 C 1149.734375 48.695312 1144.136719 48.695312 1131.242188 48.136719 C 1118.355469 47.578125 1119.476562 41.972656 1106.027344 41.972656 C 1092.570312 41.972656 1097.0625 36.929688 1091.449219 30.773438 C 1085.847656 24.613281 1083.046875 26.292969 1066.230469 26.292969 C 1049.421875 26.292969 1058.386719 33.011719 1061.742188 34.132812 C 1065.113281 35.253906 1074.078125 38.054688 1080.238281 43.65625 C 1086.402344 49.257812 1069.03125 47.019531 1061.742188 47.578125 C 1054.460938 48.136719 1055.023438 43.65625 1046.613281 38.613281 C 1038.207031 33.574219 1017.472656 36.371094 1005.699219 35.8125 C 993.929688 35.257812 993.371094 35.8125 988.894531 27.414062 C 984.40625 19.007812 974.882812 23.488281 962.542969 23.488281 C 950.21875 23.488281 943.496094 17.328125 937.328125 13.410156 C 931.171875 9.484375 921.636719 8.925781 908.1875 6.6875 C 894.734375 4.445312 902.023438 15.089844 907.0625 15.648438 C 907.0625 15.648438 912.667969 17.890625 918.269531 18.445312 C 923.875 19.003906 935.648438 19.570312 941.816406 26.847656 C 947.972656 34.132812 922.757812 31.328125 911.550781 37.488281 C 900.34375 43.652344 891.378906 40.851562 883.535156 44.210938 C 875.691406 47.574219 887.460938 53.175781 890.257812 60.457031 C 893.058594 67.738281 890.257812 67.738281 885.207031 69.421875 C 880.164062 71.101562 886.898438 61.574219 884.648438 58.777344 C 882.410156 55.972656 874 41.410156 867.28125 36.925781 C 860.554688 32.449219 861.675781 40.851562 862.796875 47.015625 C 863.914062 53.179688 865.597656 53.179688 867.28125 57.65625 C 868.960938 62.136719 859.992188 57.65625 855.507812 54.296875 C 851.023438 50.933594 836.457031 58.78125 829.726562 55.414062 C 823.007812 52.058594 831.976562 53.175781 831.976562 49.816406 C 831.976562 46.457031 824.125 49.257812 821.886719 44.214844 C 819.644531 39.175781 835.894531 33.011719 845.988281 31.328125 C 856.074219 29.648438 854.953125 29.648438 854.953125 24.609375 C 854.953125 19.570312 837.015625 21.246094 821.886719 28.53125 C 806.753906 35.808594 810.675781 40.855469 808.433594 45.898438 C 806.1875 50.9375 813.476562 51.5 816.835938 54.296875 C 820.199219 57.097656 812.917969 58.222656 806.1875 60.460938 C 799.46875 62.699219 797.785156 60.460938 789.941406 63.265625 C 782.089844 66.0625 786.574219 69.425781 779.851562 72.226562 C 773.128906 75.023438 773.6875 75.023438 768.082031 77.265625 C 762.476562 79.511719 769.203125 68.863281 777.046875 67.742188 C 784.890625 66.621094 782.648438 62.140625 780.410156 60.460938 C 778.167969 58.78125 763.597656 54.296875 747.90625 49.8125 C 732.210938 45.335938 706.996094 51.496094 698.585938 55.414062 C 690.183594 59.335938 690.742188 62.136719 689.621094 67.738281 C 688.503906 73.339844 669.449219 81.742188 659.917969 86.785156 C 650.390625 91.828125 658.796875 98.546875 661.601562 103.027344 C 664.40625 107.507812 670.566406 105.269531 678.414062 103.027344 C 686.257812 100.789062 685.136719 110.3125 686.257812 113.671875 C 687.378906 117.035156 691.859375 117.597656 699.148438 114.230469 C 706.433594 110.871094 704.75 103.03125 704.75 98.546875 C 704.75 94.066406 703.066406 91.828125 708.113281 85.664062 C 713.160156 79.503906 717.640625 75.578125 722.128906 72.78125 C 726.609375 69.976562 726.050781 75.019531 719.320312 80.625 C 712.597656 86.226562 717.078125 87.902344 720.445312 94.628906 C 723.808594 101.347656 730.53125 94.628906 738.9375 93.511719 C 747.34375 92.390625 731.652344 100.792969 725.484375 100.792969 C 719.320312 100.792969 725.484375 107.515625 721.558594 107.515625 C 717.636719 107.515625 717.078125 110.316406 716.515625 117.039062 C 715.953125 123.761719 713.710938 122.082031 709.230469 123.761719 C 704.746094 125.441406 698.023438 126 690.738281 124.316406 C 683.453125 122.636719 684.015625 115.914062 678.972656 111.4375 C 673.921875 106.953125 672.804688 113.675781 672.804688 116.480469 C 672.804688 119.28125 667.765625 125.441406 665.519531 125.441406 C 663.277344 125.441406 656.558594 132.164062 652.632812 137.765625 C 648.703125 143.363281 645.910156 140.007812 644.78125 137.765625 C 643.664062 135.523438 647.585938 132.164062 645.347656 126.5625 C 643.101562 120.960938 634.136719 116.480469 636.941406 103.597656 C 639.742188 90.714844 633.582031 97.433594 624.609375 98.554688 C 615.644531 99.675781 612.84375 103.597656 612.28125 106.957031 C 611.722656 110.316406 606.675781 117.039062 601.070312 123.199219 C 595.464844 129.363281 599.386719 134.402344 602.191406 141.125 C 604.996094 147.847656 612.28125 138.886719 614.523438 133.285156 C 616.765625 127.679688 619.566406 124.882812 622.925781 127.679688 C 626.289062 130.480469 617.878906 135.523438 616.761719 142.242188 C 615.640625 148.96875 619.007812 148.40625 626.851562 146.164062 C 634.699219 143.925781 630.773438 142.242188 636.9375 145.046875 C 643.097656 147.84375 631.335938 150.085938 624.046875 150.652344 C 616.761719 151.210938 619.566406 156.25 625.730469 160.730469 C 631.890625 165.210938 629.09375 171.933594 625.167969 172.496094 C 621.246094 173.054688 613.960938 174.171875 602.753906 176.417969 C 591.546875 178.660156 601.632812 187.617188 599.386719 192.664062 C 597.148438 197.707031 596.585938 208.90625 601.632812 209.460938 C 606.675781 210.023438 606.675781 218.425781 603.875 221.222656 C 601.074219 224.027344 600.511719 226.828125 593.789062 231.871094 C 587.0625 236.914062 592.105469 241.394531 589.867188 248.117188 C 587.621094 254.835938 582.019531 250.917969 575.292969 258.199219 C 568.570312 265.480469 565.769531 271.085938 560.722656 279.484375 C 555.679688 287.886719 555.121094 288.449219 561.285156 298.53125 C 567.445312 308.617188 561.285156 311.414062 556.238281 320.378906 C 551.191406 329.34375 557.925781 329.902344 560.160156 337.746094 C 562.40625 345.585938 566.886719 343.910156 568.570312 351.75 C 570.25 359.589844 572.488281 361.835938 580.335938 367.4375 C 588.179688 373.039062 596.027344 380.882812 599.949219 379.203125 C 603.875 377.519531 610.035156 373.042969 622.929688 373.597656 C 635.820312 374.160156 631.335938 368 644.78125 365.757812 C 658.234375 363.519531 650.945312 367.441406 652.632812 371.359375 C 654.3125 375.285156 661.59375 379.203125 671.683594 379.765625 C 681.769531 380.320312 673.367188 392.640625 672.804688 400.488281 C 672.246094 408.328125 672.804688 408.328125 677.855469 415.054688 C 682.894531 421.773438 689.621094 436.898438 691.304688 444.738281 C 692.984375 452.582031 689.621094 461.542969 685.140625 468.832031 C 680.65625 476.109375 682.339844 492.917969 691.863281 505.242188 C 701.386719 517.558594 695.785156 517 695.785156 529.890625 C 695.785156 542.773438 702.511719 540.535156 707.558594 547.8125 C 712.601562 555.09375 710.359375 568.535156 714.839844 575.820312 C 719.324219 583.097656 727.171875 576.378906 736.136719 573.015625 C 745.101562 569.65625 749.027344 570.78125 759.671875 562.933594 C 770.320312 555.09375 778.730469 539.410156 778.730469 534.929688 C 778.730469 530.445312 782.085938 528.765625 787.6875 526.53125 C 793.292969 524.289062 792.175781 509.722656 791.613281 505.800781 C 791.054688 501.875 792.734375 498.523438 794.980469 496.277344 C 797.21875 494.035156 811.234375 480.59375 816.273438 474.992188 C 821.320312 469.394531 816.832031 461.546875 815.710938 452.585938 C 814.589844 443.625 811.226562 440.265625 811.226562 429.617188 C 811.226562 418.96875 807.867188 420.097656 826.359375 402.730469 C 844.851562 385.363281 862.226562 357.914062 863.910156 351.753906 C 865.59375 345.589844 865.03125 340.550781 863.910156 336.070312 C 862.792969 331.585938 838.691406 340.550781 833.089844 340.550781 C 827.484375 340.550781 817.394531 328.226562 816.28125 323.746094 C 815.160156 319.261719 806.753906 314.785156 799.46875 308.058594 C 792.183594 301.339844 797.785156 291.816406 792.183594 284.53125 C 786.582031 277.25 783.78125 266.605469 782.660156 260.441406 C 781.53125 254.28125 791.0625 264.925781 798.355469 273.324219 C 805.636719 281.726562 815.164062 297.414062 817.964844 303.019531 C 820.773438 308.621094 823.015625 317.019531 823.570312 323.742188 C 824.128906 330.464844 828.613281 331.585938 835.339844 331.027344 C 842.0625 330.46875 865.605469 318.140625 874.011719 314.222656 C 882.417969 310.300781 892.503906 298.535156 896.429688 287.335938 C 900.351562 276.132812 888.023438 277.8125 882.417969 272.207031 C 876.816406 266.605469 876.816406 272.207031 870.085938 273.890625 C 863.363281 275.570312 857.753906 266.605469 847.105469 256.527344 C 836.460938 246.4375 843.1875 249.804688 845.425781 247.5625 C 847.664062 245.320312 858.316406 252.605469 864.476562 259.886719 C 870.644531 267.164062 871.761719 264.371094 879.050781 264.371094 C 886.335938 264.371094 888.019531 267.730469 897.542969 270.53125 C 907.066406 273.332031 912.113281 269.414062 920.257812 270.277344 C 928.414062 271.140625 927.242188 275.011719 932.851562 283.976562 C 938.453125 292.9375 936.210938 290.140625 948.542969 291.257812 C 960.871094 292.375 951.90625 291.257812 951.90625 299.101562 C 951.90625 306.941406 953.03125 309.746094 960.3125 319.265625 C 967.59375 328.789062 970.398438 346.714844 972.640625 355.679688 C 974.886719 364.636719 979.363281 355.679688 986.652344 355.679688 C 993.933594 355.679688 987.210938 361.84375 992.8125 370.804688 C 998.417969 379.773438 1002.339844 368 1002.339844 364.644531 C 1002.339844 361.28125 998.976562 352.882812 995.621094 350.078125 C 992.253906 347.277344 987.773438 347.835938 991.6875 343.359375 C 995.621094 338.878906 992.253906 334.398438 992.253906 328.234375 C 992.253906 322.070312 992.8125 317.589844 995.621094 314.789062 C 998.421875 311.988281 1008.511719 301.90625 1014.667969 294.625 C 1020.835938 287.34375 1025.878906 286.222656 1034.28125 286.78125 C 1042.6875 287.34375 1035.964844 288.460938 1041.007812 295.183594 C 1046.050781 301.90625 1047.164062 311.429688 1052.777344 318.152344 C 1058.378906 324.875 1058.941406 317.035156 1063.421875 314.792969 C 1067.910156 312.550781 1065.109375 321.515625 1068.46875 328.234375 C 1071.832031 334.964844 1069.589844 343.921875 1069.589844 350.082031 C 1069.589844 356.242188 1076.875 362.402344 1081.359375 368.003906 C 1085.847656 373.609375 1084.164062 376.410156 1081.359375 378.648438 C 1078.558594 380.890625 1072.957031 373.046875 1068.46875 368.570312 C 1063.984375 364.082031 1057.257812 366.886719 1061.75 371.929688 C 1066.230469 376.972656 1069.03125 385.933594 1074.078125 395.457031 C 1079.121094 404.976562 1089.769531 416.179688 1097.058594 426.265625 C 1104.335938 436.347656 1127.875 440.832031 1136.839844 440.832031 C 1145.792969 440.835938 1163.742188 448.671875 1172.710938 449.785156 Z M 783.773438 232.441406 C 780.410156 239.160156 778.730469 243.648438 773.6875 241.964844 C 768.640625 240.28125 751.832031 240.84375 743.421875 238.042969 C 735.019531 235.242188 722.695312 230.199219 720.449219 236.363281 C 718.207031 242.523438 726.050781 247.566406 712.042969 242.523438 C 698.03125 237.480469 682.902344 231.324219 681.21875 226.835938 C 679.535156 222.355469 686.824219 210.035156 676.734375 210.035156 C 666.652344 210.035156 652.636719 209.476562 648.15625 212.832031 C 643.671875 216.195312 626.296875 222.359375 620.695312 220.675781 C 615.601562 219.152344 607.808594 217.320312 616.777344 213.394531 C 625.742188 209.476562 636.386719 211.714844 637.507812 206.113281 C 638.628906 200.507812 629.664062 199.390625 638.628906 194.347656 C 647.59375 189.304688 644.234375 184.828125 650.398438 182.023438 C 656.5625 179.222656 664.96875 179.785156 669.453125 178.109375 C 673.9375 176.425781 667.773438 174.742188 676.738281 179.785156 C 685.699219 184.828125 691.308594 194.347656 695.792969 194.910156 C 700.28125 195.46875 703.078125 198.832031 700.28125 201.070312 C 697.476562 203.3125 692.992188 204.996094 691.3125 204.996094 C 689.632812 204.996094 688.515625 209.476562 690.191406 210.035156 C 691.875 210.597656 695.792969 217.878906 698.597656 215.636719 C 701.398438 213.394531 698.597656 210.035156 703.640625 208.355469 C 708.6875 206.671875 713.726562 204.4375 711.488281 201.070312 C 709.242188 197.714844 707.003906 193.789062 711.488281 196.027344 C 715.972656 198.269531 719.890625 197.152344 714.847656 192.109375 C 709.8125 187.0625 708.125 187.0625 701.957031 182.585938 C 695.792969 178.105469 689.070312 175.863281 689.070312 172.503906 C 689.070312 169.140625 685.144531 162.976562 691.3125 165.21875 C 697.472656 167.457031 718.773438 179.222656 718.773438 183.707031 C 718.773438 188.183594 724.375 196.027344 719.328125 199.949219 C 714.285156 203.871094 724.378906 204.992188 726.613281 207.226562 C 728.859375 209.46875 727.738281 215.632812 733.902344 214.511719 C 740.0625 213.394531 744.550781 213.953125 741.183594 207.789062 C 737.820312 201.628906 732.21875 198.832031 737.820312 196.589844 C 743.425781 194.347656 744.546875 191.546875 746.226562 201.070312 C 747.910156 210.59375 745.664062 213.953125 759.117188 214.515625 C 772.566406 215.078125 781.53125 211.15625 783.21875 215.078125 C 784.894531 218.996094 787.136719 225.71875 783.773438 232.441406 Z M 805.628906 190.429688 C 796.664062 189.867188 781.523438 187.0625 774.246094 187.0625 C 766.964844 187.0625 764.160156 188.183594 764.160156 188.183594 C 757.996094 187.0625 743.421875 190.988281 750.707031 181.460938 C 757.992188 171.941406 753.507812 159.617188 762.476562 162.976562 C 771.445312 166.335938 772.007812 179.222656 777.609375 171.378906 C 783.214844 163.535156 789.382812 154.570312 791.0625 160.734375 C 792.742188 166.894531 783.21875 171.9375 794.988281 176.976562 C 806.75 182.023438 814.597656 190.988281 805.628906 190.429688 Z M 859.429688 211.15625 C 851.023438 211.15625 840.9375 209.476562 840.9375 204.996094 C 840.9375 200.507812 840.9375 194.347656 840.9375 194.347656 C 836.449219 183.707031 830.851562 181.464844 830.851562 174.183594 C 830.851562 166.902344 835.335938 160.738281 844.304688 160.738281 C 853.265625 160.738281 857.75 159.621094 851.023438 167.460938 C 844.304688 175.300781 838.132812 175.863281 847.101562 188.1875 C 856.066406 200.507812 867.835938 211.15625 859.429688 211.15625 Z M 1163.761719 286.808594 C 1168.175781 288.070312 1169.429688 269.816406 1161.242188 272.332031 C 1153.0625 274.851562 1158.59375 285.332031 1163.761719 286.808594 Z M 1175.105469 340.316406 C 1178.878906 342.839844 1179.511719 347.238281 1178.878906 354.167969 C 1178.253906 361.09375 1171.953125 360.460938 1182.660156 364.871094 C 1193.367188 369.269531 1205.960938 376.828125 1202.808594 362.980469 C 1199.664062 349.128906 1202.179688 347.242188 1190.851562 336.542969 C 1179.511719 325.839844 1178.886719 332.765625 1177.621094 323.953125 C 1176.359375 315.140625 1173.210938 298.773438 1168.800781 305.070312 C 1164.917969 310.625 1161.882812 312.621094 1166.292969 322.066406 C 1170.691406 331.503906 1171.320312 337.796875 1175.105469 340.316406 Z M 1151.175781 362.347656 C 1147.363281 367.25 1139.828125 378.085938 1134.800781 381.863281 C 1129.769531 385.640625 1120.949219 380.605469 1121.578125 389.421875 C 1122.203125 398.226562 1122.832031 402.007812 1123.460938 408.304688 C 1124.089844 414.59375 1125.351562 418.375 1134.800781 418.375 C 1144.25 418.375 1148.652344 421.523438 1151.804688 420.261719 C 1154.957031 419 1154.324219 413.339844 1158.101562 405.789062 C 1161.882812 398.226562 1168.179688 400.121094 1165.65625 394.453125 C 1163.136719 388.785156 1163.132812 390.050781 1163.132812 384.386719 C 1163.132812 378.71875 1166.292969 382.496094 1164.402344 373.050781 C 1162.511719 363.601562 1155.582031 356.6875 1151.175781 362.347656 Z M 1284.050781 420.890625 C 1275.863281 412.078125 1262.007812 405.78125 1256.335938 406.414062 C 1250.675781 407.039062 1245.632812 415.855469 1242.488281 412.707031 C 1239.335938 409.558594 1229.894531 394.457031 1224.855469 398.863281 C 1219.820312 403.265625 1225.484375 408.304688 1219.1875 408.304688 C 1212.894531 408.304688 1211.003906 415.859375 1209.734375 405.785156 C 1208.480469 395.710938 1203.441406 390.671875 1202.179688 398.226562 C 1200.921875 405.785156 1200.292969 410.816406 1197.144531 405.15625 C 1193.988281 399.488281 1192.097656 403.269531 1192.097656 397.601562 C 1192.097656 391.9375 1179.507812 385.640625 1174.476562 391.9375 C 1171.320312 395.867188 1170.066406 396.339844 1168.804688 405.15625 C 1167.542969 413.96875 1164.394531 427.820312 1171.316406 424.046875 C 1178.253906 420.265625 1179.503906 423.410156 1182.65625 419.003906 C 1185.8125 414.59375 1189.589844 412.082031 1195.25 414.597656 C 1200.921875 417.113281 1198.402344 417.113281 1208.476562 415.855469 C 1218.550781 414.605469 1223.589844 414.597656 1230.519531 419.007812 C 1237.445312 423.410156 1251.300781 420.894531 1251.300781 425.300781 C 1251.300781 429.707031 1236.816406 432.859375 1251.300781 437.257812 C 1265.777344 441.664062 1268.933594 451.738281 1273.34375 446.707031 C 1277.746094 441.664062 1284.046875 434.742188 1288.457031 439.773438 C 1292.859375 444.8125 1309.867188 458.660156 1306.71875 451.105469 C 1303.566406 443.554688 1304.199219 436.628906 1314.28125 428.445312 C 1324.347656 420.265625 1321.832031 416.492188 1317.421875 416.492188 C 1313.019531 416.492188 1313.019531 422.152344 1302.941406 423.410156 C 1292.867188 424.667969 1292.242188 429.703125 1284.050781 420.890625 Z M 1288.460938 502.09375 C 1282.792969 487.613281 1282.792969 476.28125 1279.640625 469.988281 C 1276.492188 463.695312 1279.007812 456.140625 1269.566406 456.140625 C 1265.734375 456.140625 1265.785156 458.65625 1262.632812 466.84375 C 1259.488281 475.023438 1263.265625 490.132812 1255.078125 488.246094 C 1246.890625 486.359375 1243.117188 482.585938 1241.222656 474.398438 C 1239.332031 466.214844 1243.746094 458.660156 1237.449219 458.660156 C 1231.148438 458.660156 1213.515625 454.257812 1209.109375 461.175781 C 1204.699219 468.101562 1210.363281 470.625 1200.921875 470.625 C 1191.476562 470.625 1187.691406 470.625 1182.660156 476.914062 C 1177.621094 483.210938 1170.695312 500.835938 1143.613281 502.097656 C 1116.535156 503.355469 1130.390625 517.835938 1130.390625 533.566406 C 1130.390625 549.304688 1115.910156 558.75 1122.207031 564.414062 C 1128.5 570.078125 1120.3125 577.640625 1133.542969 573.230469 C 1146.769531 568.824219 1158.734375 567.558594 1179.515625 564.414062 C 1200.296875 561.261719 1209.738281 560.003906 1210.371094 570.078125 C 1211 580.148438 1207.851562 573.230469 1216.042969 575.117188 C 1224.230469 577.003906 1215.421875 590.230469 1224.863281 591.484375 C 1234.304688 592.742188 1228.640625 599.664062 1236.820312 599.664062 C 1245.007812 599.664062 1248.160156 608.472656 1241.226562 608.472656 C 1234.300781 608.472656 1224.230469 622.949219 1234.300781 617.921875 C 1244.371094 612.886719 1254.449219 611.625 1254.449219 604.078125 C 1254.449219 596.515625 1253.195312 595.894531 1265.160156 586.453125 C 1277.125 577.007812 1304.828125 554.351562 1302.941406 536.089844 C 1301.050781 517.832031 1294.132812 516.570312 1288.460938 502.09375 Z M 1370.949219 577.625 C 1365.917969 575.113281 1365.917969 579.523438 1362.765625 588.960938 C 1359.621094 598.40625 1343.878906 602.1875 1341.363281 604.070312 C 1338.839844 605.957031 1333.796875 611.621094 1333.796875 611.621094 C 1321.84375 619.175781 1298.539062 626.734375 1304.203125 633.03125 C 1309.871094 639.320312 1313.65625 635.539062 1327.503906 628.621094 C 1341.359375 621.695312 1345.140625 612.886719 1352.699219 607.847656 C 1360.257812 602.808594 1364.660156 603.449219 1370.332031 597.144531 C 1375.996094 590.847656 1375.996094 580.148438 1370.949219 577.625 Z M 1370.949219 577.625 " fill-opacity="1" fill-rule="nonzero"/></g></g></g></g><g clip-path="url(#id5)"><path fill="#a16869" d="M 218.988281 174.578125 C 203.457031 174.578125 190.863281 187.15625 190.863281 202.664062 C 190.863281 223.730469 218.988281 254.828125 218.988281 254.828125 C 218.988281 254.828125 247.109375 223.730469 247.109375 202.664062 C 247.109375 187.15625 234.515625 174.578125 218.988281 174.578125 Z M 218.988281 212.695312 C 213.441406 212.695312 208.941406 208.203125 208.941406 202.664062 C 208.941406 197.128906 213.441406 192.632812 218.988281 192.632812 C 224.53125 192.632812 229.03125 197.128906 229.03125 202.664062 C 229.03125 208.203125 224.53125 212.695312 218.988281 212.695312 Z M 218.988281 212.695312 " fill-opacity="1" fill-rule="nonzero"/></g><g clip-path="url(#id6)"><path fill="#a16869" d="M 589.796875 342.523438 C 574.269531 342.523438 561.671875 355.101562 561.671875 370.609375 C 561.671875 391.675781 589.796875 422.773438 589.796875 422.773438 C 589.796875 422.773438 617.921875 391.675781 617.921875 370.609375 C 617.921875 355.101562 605.324219 342.523438 589.796875 342.523438 Z M 589.796875 380.640625 C 584.25 380.640625 579.753906 376.148438 579.753906 370.609375 C 579.753906 365.074219 584.25 360.578125 589.796875 360.578125 C 595.339844 360.578125 599.839844 365.074219 599.839844 370.609375 C 599.839844 376.148438 595.339844 380.640625 589.796875 380.640625 Z M 589.796875 380.640625 " fill-opacity="1" fill-rule="nonzero"/></g><g clip-path="url(#id7)"><path fill="#a16869" d="M 1200.128906 304.933594 C 1184.601562 304.933594 1172.003906 317.515625 1172.003906 333.023438 C 1172.003906 354.089844 1200.128906 385.183594 1200.128906 385.183594 C 1200.128906 385.183594 1228.253906 354.089844 1228.253906 333.023438 C 1228.253906 317.515625 1215.65625 304.933594 1200.128906 304.933594 Z M 1200.128906 343.054688 C 1194.585938 343.054688 1190.085938 338.558594 1190.085938 333.023438 C 1190.085938 327.484375 1194.585938 322.992188 1200.128906 322.992188 C 1205.675781 322.992188 1210.175781 327.484375 1210.175781 333.023438 C 1210.175781 338.558594 1205.675781 343.054688 1200.128906 343.054688 Z M 1200.128906 343.054688 " fill-opacity="1" fill-rule="nonzero"/></g><g clip-path="url(#id8)"><path fill="#a16869" d="M 706.753906 110.445312 C 691.226562 110.445312 678.628906 123.023438 678.628906 138.53125 C 678.628906 159.597656 706.753906 190.695312 706.753906 190.695312 C 706.753906 190.695312 734.878906 159.597656 734.878906 138.53125 C 734.878906 123.023438 722.28125 110.445312 706.753906 110.445312 Z M 706.753906 148.5625 C 701.207031 148.5625 696.710938 144.070312 696.710938 138.53125 C 696.710938 132.996094 701.207031 128.5 706.753906 128.5 C 712.296875 128.5 716.796875 132.996094 716.796875 138.53125 C 716.796875 144.070312 712.296875 148.5625 706.753906 148.5625 Z M 706.753906 148.5625 " fill-opacity="1" fill-rule="nonzero"/></g><g clip-path="url(#id9)"><path fill="#a16869" d="M 617.839844 364.9375 C 602.3125 364.9375 589.714844 377.515625 589.714844 393.023438 C 589.714844 414.089844 617.839844 445.1875 617.839844 445.1875 C 617.839844 445.1875 645.964844 414.089844 645.964844 393.023438 C 645.964844 377.515625 633.367188 364.9375 617.839844 364.9375 Z M 617.839844 403.054688 C 612.296875 403.054688 607.796875 398.5625 607.796875 393.023438 C 607.796875 387.488281 612.296875 382.992188 617.839844 382.992188 C 623.386719 382.992188 627.886719 387.488281 627.886719 393.023438 C 627.886719 398.5625 623.386719 403.054688 617.839844 403.054688 Z M 617.839844 403.054688 " fill-opacity="1" fill-rule="nonzero"/></g></svg>